# xmcd
#
# Track frame offsets:
#	150
#	6760
#	21130
#	43437
#	62212
#	85862
#	110042
#	127192
#	142755
#	159127
#	179815
#	197972
#	218465
#	246067
#	267922
#	285025
#	301265
#	324490
#
# Disc length: 4528 seconds
#
# Revision: 83224977
# Processed by: cddbd v1.5.1PL0 Copyright (c) Steve Scherf et al.
# Submitted via: EasyCDDAExtractor 8.0.2.1
#
DISCID=fc11ae12
DTITLE=The Notorious B.I.G. - Born Again
DYEAR=1999
DGENRE=Hip-Hop - Gangsta
TTITLE0=Born Again (Intro)
TTITLE1=Notorious B.I.G. (Featuring Lil' Kim and P. Diddy)
TTITLE2=Dead Wrong (Featuring Eminem)
TTITLE3=Hope You Niggas Sleep (Featuring Hot Boys and Big Timer)
TTITLE4=Dangerous MC's (Featuring Mark Curry, Snoop Dogg and Busta Rhymes)
TTITLE5=Biggie (Featuring Junior M.A.F.I.A.)
TTITLE6=Niggas
TTITLE7=Big Booty Hoes (Featuring Too Short)
TTITLE8=Would You Die For Me (Featuring Lil Kim and P. Diddy)
TTITLE9=Come On (Featuring Sadat X)
TTITLE10=Rap Phenomenon (Featuring Redman and Method Man)
TTITLE11=Let Me Get Down (Featuring G-Dep, Graig Mack, and Missy "Misdemeanor" E
TTITLE11=lliot)
TTITLE12=Tonight (Featuring Mobb Deep and Joe Hooker)
TTITLE13=If I Should Die Before I Wake (Featuring Black Rob, Ice Cube and Beanie
TTITLE13=Sigel)
TTITLE14=Who Shot Ya
TTITLE15=Can I Get Witcha (Featuring Lil' Cease)
TTITLE16=I Really Want To Show You (Featuring K-Ci and Jo-Jo and Nas)
TTITLE17=Ms. Wallace (outro)
EXTD=YEAR: 1999 ID3G: 15
EXTT0=
EXTT1=
EXTT2=
EXTT3=
EXTT4=
EXTT5=
EXTT6=
EXTT7=
EXTT8=
EXTT9=
EXTT10=
EXTT11=
EXTT12=
EXTT13=
EXTT14=
EXTT15=
EXTT16=
EXTT17=
PLAYORDER=
